<mxfile host="Electron" modified="2023-10-26T12:50:25.862Z" agent="Mozilla/5.0 (Windows NT 10.0; Win64; x64) AppleWebKit/537.36 (KHTML, like Gecko) draw.io/22.0.3 Chrome/114.0.5735.289 Electron/25.8.4 Safari/537.36" etag="xswAvxbD8yrisW24OAFS" version="22.0.3" type="device">
  <diagram name="Page-1" id="ARmhLs4KJRCT0FjVb10g">
    <mxGraphModel dx="775" dy="452" grid="1" gridSize="10" guides="1" tooltips="1" connect="1" arrows="1" fold="1" page="1" pageScale="1" pageWidth="1169" pageHeight="827" background="#ffffff" math="1" shadow="0">
      <root>
        <mxCell id="0" />
        <mxCell id="1" parent="0" />
        <mxCell id="JHN4IJF5H-cjEOWC0v3l-48" value="&lt;font color=&quot;#050505&quot;&gt;&lt;b&gt;[Ref 0.0] [Function Name]&lt;/b&gt;&lt;/font&gt;" style="rounded=0;whiteSpace=wrap;html=1;verticalAlign=top;fillColor=none;strokeColor=#000000;gradientColor=none;dashed=1;dashPattern=8 8;align=left;connectable=0;allowArrows=0;container=1;collapsible=0;dropTarget=1;recursiveResize=0;" parent="1" vertex="1">
          <mxGeometry x="160" y="80" width="800" height="480" as="geometry" />
        </mxCell>
        <mxCell id="JHN4IJF5H-cjEOWC0v3l-57" value="" style="group;recursiveResize=0;resizable=0;connectable=1;points=[[0,0.5,0,0,0],[0.5,0,0,0,0],[0.5,1,0,0,0],[1,0.5,0,0,0]];snapToPoint=1;" parent="1" vertex="1" connectable="0">
          <mxGeometry x="400" y="599.9999999999999" width="120" height="80" as="geometry" />
        </mxCell>
        <mxCell id="JHN4IJF5H-cjEOWC0v3l-55" value="" style="rounded=0;whiteSpace=wrap;html=1;fillColor=#f5f5f5;strokeColor=none;fontColor=#333333;comic=0;jiggle=29;noLabel=1;points=[];backgroundOutline=1;" parent="JHN4IJF5H-cjEOWC0v3l-57" vertex="1">
          <mxGeometry width="120" height="80" as="geometry" />
        </mxCell>
        <mxCell id="JHN4IJF5H-cjEOWC0v3l-53" value="&lt;font color=&quot;#000000&quot;&gt;&lt;b&gt;[Function Name]&lt;/b&gt;&lt;/font&gt;" style="rounded=0;whiteSpace=wrap;html=1;fillColor=none;strokeColor=#000000;fontColor=#333333;comic=0;jiggle=29;points=[];connectable=0;allowArrows=0;movable=0;strokeWidth=2;" parent="JHN4IJF5H-cjEOWC0v3l-57" vertex="1">
          <mxGeometry y="20" width="120" height="60" as="geometry" />
        </mxCell>
        <mxCell id="JHN4IJF5H-cjEOWC0v3l-54" value="&lt;font color=&quot;#000000&quot;&gt;&lt;b&gt;[0.0]&lt;/b&gt;&lt;/font&gt;" style="rounded=0;whiteSpace=wrap;html=1;fillColor=none;strokeColor=#000000;fontColor=#333333;comic=0;jiggle=29;points=[];connectable=0;allowArrows=0;movable=0;strokeWidth=2;" parent="JHN4IJF5H-cjEOWC0v3l-57" vertex="1">
          <mxGeometry width="120" height="20" as="geometry" />
        </mxCell>
        <mxCell id="BNTzW1WM9F4XbJz14T_w-20" value="" style="group;dropTarget=0;recursiveResize=0;expand=0;resizable=0;rotatable=0;rotation=0;points=[[0,0.5,0,0,0],[1,0.5,0,0,0]];connectable=1;" vertex="1" connectable="0" parent="1">
          <mxGeometry x="80" y="640" width="122" height="80.00000000000011" as="geometry" />
        </mxCell>
        <mxCell id="BNTzW1WM9F4XbJz14T_w-6" value="&lt;font color=&quot;#000000&quot;&gt;&lt;b&gt;Ref. [0.0]&amp;nbsp;&lt;/b&gt;&lt;/font&gt;" style="rounded=0;whiteSpace=wrap;html=1;fillColor=#f5f5f5;strokeColor=none;fontColor=#333333;comic=0;jiggle=29;noLabel=0;points=[];backgroundOutline=0;connectable=0;allowArrows=0;recursiveResize=0;expand=0;movable=0;perimeter=none;rotatable=0;cloneable=0;deletable=0;resizable=0;" vertex="1" parent="BNTzW1WM9F4XbJz14T_w-20">
          <mxGeometry x="1" width="120" height="80" as="geometry" />
        </mxCell>
        <mxCell id="BNTzW1WM9F4XbJz14T_w-7" value="" style="endArrow=none;html=1;rounded=0;entryX=0.328;entryY=0.013;entryDx=0;entryDy=0;entryPerimeter=0;exitX=-0.003;exitY=0.008;exitDx=0;exitDy=0;exitPerimeter=0;" edge="1" parent="BNTzW1WM9F4XbJz14T_w-20" source="BNTzW1WM9F4XbJz14T_w-6" target="BNTzW1WM9F4XbJz14T_w-6">
          <mxGeometry width="50" height="50" relative="1" as="geometry">
            <mxPoint x="121" y="-9.999999999999886" as="sourcePoint" />
            <mxPoint x="171" y="-59.999999999999886" as="targetPoint" />
          </mxGeometry>
        </mxCell>
        <mxCell id="BNTzW1WM9F4XbJz14T_w-18" value="" style="group;allowArrows=0;dropTarget=0;recursiveResize=0;expand=0;editable=1;movable=0;resizable=0;rotatable=0;deletable=0;locked=0;connectable=0;cloneable=0;perimeter=none;noLabel=1;" vertex="1" connectable="0" parent="BNTzW1WM9F4XbJz14T_w-20">
          <mxGeometry y="1.1368683772161603e-13" width="1" height="80" as="geometry" />
        </mxCell>
        <mxCell id="BNTzW1WM9F4XbJz14T_w-9" value="" style="endArrow=none;html=1;rounded=0;strokeColor=#000000;strokeWidth=2;entryX=0.333;entryY=1;entryDx=0;entryDy=0;entryPerimeter=0;exitX=-0.002;exitY=-0.002;exitDx=0;exitDy=0;exitPerimeter=0;" edge="1" parent="BNTzW1WM9F4XbJz14T_w-18" target="BNTzW1WM9F4XbJz14T_w-6">
          <mxGeometry width="50" height="50" relative="1" as="geometry">
            <mxPoint y="80" as="sourcePoint" />
            <mxPoint x="32" y="80" as="targetPoint" />
          </mxGeometry>
        </mxCell>
        <mxCell id="BNTzW1WM9F4XbJz14T_w-10" value="" style="endArrow=none;html=1;strokeColor=#000000;strokeWidth=2;entryX=-0.003;entryY=-0.002;entryDx=0;entryDy=0;entryPerimeter=0;shadow=0;backgroundOutline=0;startFill=0;endFill=1;snapToPoint=0;startArrow=none;jumpStyle=none;endSize=0;startSize=0;rounded=0;" edge="1" parent="BNTzW1WM9F4XbJz14T_w-18">
          <mxGeometry width="50" height="50" relative="1" as="geometry">
            <mxPoint x="1" y="80" as="sourcePoint" />
            <mxPoint x="1" as="targetPoint" />
          </mxGeometry>
        </mxCell>
        <mxCell id="BNTzW1WM9F4XbJz14T_w-12" value="" style="endArrow=none;html=1;rounded=0;strokeColor=#000000;strokeWidth=2;entryX=0.334;entryY=-0.002;entryDx=0;entryDy=0;entryPerimeter=0;" edge="1" parent="BNTzW1WM9F4XbJz14T_w-18" target="BNTzW1WM9F4XbJz14T_w-6">
          <mxGeometry width="50" height="50" relative="1" as="geometry">
            <mxPoint as="sourcePoint" />
            <mxPoint x="32" as="targetPoint" />
          </mxGeometry>
        </mxCell>
        <mxCell id="BNTzW1WM9F4XbJz14T_w-19" value="" style="group;allowArrows=0;dropTarget=0;recursiveResize=0;expand=0;movable=0;resizable=0;rotatable=0;cloneable=0;deletable=0;perimeter=none;" vertex="1" connectable="0" parent="BNTzW1WM9F4XbJz14T_w-20">
          <mxGeometry x="81" y="1.1368683772161603e-13" width="41" height="80" as="geometry" />
        </mxCell>
        <mxCell id="BNTzW1WM9F4XbJz14T_w-15" value="" style="endArrow=none;html=1;rounded=0;strokeColor=#000000;strokeWidth=2;" edge="1" parent="BNTzW1WM9F4XbJz14T_w-19">
          <mxGeometry width="50" height="50" relative="1" as="geometry">
            <mxPoint x="41" as="sourcePoint" />
            <mxPoint as="targetPoint" />
          </mxGeometry>
        </mxCell>
        <mxCell id="BNTzW1WM9F4XbJz14T_w-16" value="" style="endArrow=none;html=1;strokeColor=#000000;strokeWidth=2;entryX=-0.003;entryY=-0.002;entryDx=0;entryDy=0;entryPerimeter=0;shadow=0;backgroundOutline=0;startFill=0;endFill=1;snapToPoint=0;startArrow=none;jumpStyle=none;endSize=0;startSize=0;rounded=0;" edge="1" parent="BNTzW1WM9F4XbJz14T_w-19">
          <mxGeometry width="50" height="50" relative="1" as="geometry">
            <mxPoint x="40" as="sourcePoint" />
            <mxPoint x="40" y="80" as="targetPoint" />
          </mxGeometry>
        </mxCell>
        <mxCell id="BNTzW1WM9F4XbJz14T_w-17" value="" style="endArrow=none;html=1;rounded=0;strokeColor=#000000;strokeWidth=2;" edge="1" parent="BNTzW1WM9F4XbJz14T_w-19">
          <mxGeometry width="50" height="50" relative="1" as="geometry">
            <mxPoint x="41" y="80" as="sourcePoint" />
            <mxPoint y="80" as="targetPoint" />
          </mxGeometry>
        </mxCell>
        <mxCell id="BNTzW1WM9F4XbJz14T_w-21" value="&lt;font color=&quot;#000000&quot;&gt;and&lt;/font&gt;" style="ellipse;whiteSpace=wrap;html=1;aspect=fixed;fillColor=#f5f5f5;strokeColor=#000000;fontColor=#333333;rounded=0;comic=0;jiggle=29;strokeWidth=2;points=[[0,0.5,0,0,0],[0.5,0,0,0,0],[0.5,1,0,0,0],[1,0.5,0,0,0]];recursiveResize=0;expand=0;editable=0;movable=1;resizable=0;rotatable=0;deletable=1;locked=0;connectable=1;snapToPoint=1;fontStyle=1" vertex="1" parent="1">
          <mxGeometry x="770" y="620" width="40" height="40" as="geometry" />
        </mxCell>
        <mxCell id="BNTzW1WM9F4XbJz14T_w-22" value="&lt;font color=&quot;#000000&quot;&gt;or&lt;/font&gt;" style="ellipse;whiteSpace=wrap;html=1;aspect=fixed;fillColor=#f5f5f5;strokeColor=#000000;fontColor=#333333;rounded=0;comic=0;jiggle=29;strokeWidth=2;points=[[0,0.5,0,0,0],[0.5,0,0,0,0],[0.5,1,0,0,0],[1,0.5,0,0,0]];recursiveResize=0;expand=0;editable=0;movable=1;resizable=0;rotatable=0;deletable=1;locked=0;connectable=1;snapToPoint=1;fontStyle=1" vertex="1" parent="1">
          <mxGeometry x="890" y="660" width="40" height="40" as="geometry" />
        </mxCell>
        <mxCell id="BNTzW1WM9F4XbJz14T_w-25" value="&lt;b&gt;[Function Name]&lt;/b&gt;" style="rounded=0;whiteSpace=wrap;html=1;fillColor=#f5f5f5;strokeColor=#000000;fontColor=#333333;comic=0;jiggle=29;noLabel=0;points=[[0,0.5,0,0,0],[0.5,0,0,0,0],[0.5,1,0,0,0],[1,0.5,0,0,0]];backgroundOutline=1;strokeWidth=2;dashed=1;connectable=1;snapToPoint=1;" vertex="1" parent="1">
          <mxGeometry x="570" y="689.9999999999999" width="120" height="80" as="geometry" />
        </mxCell>
        <mxCell id="BNTzW1WM9F4XbJz14T_w-28" value="" style="endArrow=classic;html=1;rounded=0;strokeColor=#000000;strokeWidth=2;" edge="1" parent="1" source="BNTzW1WM9F4XbJz14T_w-20" target="BNTzW1WM9F4XbJz14T_w-21">
          <mxGeometry width="50" height="50" relative="1" as="geometry">
            <mxPoint x="530" y="580" as="sourcePoint" />
            <mxPoint x="670" y="740" as="targetPoint" />
          </mxGeometry>
        </mxCell>
        <mxCell id="BNTzW1WM9F4XbJz14T_w-29" value="" style="endArrow=classic;html=1;rounded=0;strokeColor=#000000;strokeWidth=2;labelBackgroundColor=default;align=center;verticalAlign=middle;fontFamily=Helvetica;fontSize=11;fontColor=default;shape=connector;backgroundOutline=0;noJump=1;flowAnimation=0;enumerate=0;orthogonal=0;orthogonalLoop=0;ignoreEdge=0;comic=0;" edge="1" parent="1">
          <mxGeometry width="50" height="50" relative="1" as="geometry">
            <mxPoint x="280" y="760" as="sourcePoint" />
            <mxPoint x="440" y="760" as="targetPoint" />
          </mxGeometry>
        </mxCell>
        <mxCell id="BNTzW1WM9F4XbJz14T_w-30" value="&lt;span style=&quot;font-size: 12px;&quot;&gt;$$\text{G}$$&lt;/span&gt;" style="edgeLabel;html=1;align=center;verticalAlign=middle;resizable=1;points=[];fontSize=12;fontFamily=Helvetica;fontColor=#000000;labelBackgroundColor=none;fontStyle=1;editable=1;movable=1;rotatable=1;deletable=1;locked=0;connectable=1;" vertex="1" connectable="0" parent="BNTzW1WM9F4XbJz14T_w-29">
          <mxGeometry x="-0.1714" y="1" relative="1" as="geometry">
            <mxPoint x="-56" y="-9" as="offset" />
          </mxGeometry>
        </mxCell>
        <mxCell id="BNTzW1WM9F4XbJz14T_w-31" value="" style="endArrow=classic;html=1;rounded=0;strokeColor=#000000;strokeWidth=2;labelBackgroundColor=default;align=center;verticalAlign=middle;fontFamily=Helvetica;fontSize=11;fontColor=default;shape=connector;backgroundOutline=0;noJump=1;flowAnimation=0;enumerate=0;orthogonal=0;orthogonalLoop=0;ignoreEdge=0;comic=0;" edge="1" parent="1">
          <mxGeometry width="50" height="50" relative="1" as="geometry">
            <mxPoint x="280" y="800" as="sourcePoint" />
            <mxPoint x="440" y="800" as="targetPoint" />
          </mxGeometry>
        </mxCell>
        <mxCell id="BNTzW1WM9F4XbJz14T_w-32" value="" style="edgeLabel;html=1;align=center;verticalAlign=middle;resizable=0;points=[];fontSize=12;fontFamily=Helvetica;fontColor=#000000;labelBackgroundColor=none;fontStyle=1;editable=1;movable=1;rotatable=0;deletable=0;locked=0;connectable=0;allowArrows=0;expand=0;recursiveResize=0;cloneable=0;pointerEvents=1;perimeter=none;" vertex="1" connectable="0" parent="BNTzW1WM9F4XbJz14T_w-31">
          <mxGeometry x="-0.1714" y="1" relative="1" as="geometry">
            <mxPoint x="-53" y="-19" as="offset" />
          </mxGeometry>
        </mxCell>
        <mxCell id="BNTzW1WM9F4XbJz14T_w-33" value="$$\overline{\text{G}}$$" style="edgeLabel;html=1;align=center;verticalAlign=middle;resizable=0;points=[];fontSize=12;fontFamily=Helvetica;fontColor=#000000;labelBackgroundColor=none;fontStyle=1" vertex="1" connectable="0" parent="BNTzW1WM9F4XbJz14T_w-31">
          <mxGeometry x="-0.5781" relative="1" as="geometry">
            <mxPoint x="-24" y="-10" as="offset" />
          </mxGeometry>
        </mxCell>
      </root>
    </mxGraphModel>
  </diagram>
</mxfile>
